<!-- Son of Anton - Activity Bar Icon -->
<svg xmlns="http://www.w3.org/2000/svg" viewBox="0 0 24 24" fill="none" stroke="currentColor" stroke-width="1.5" stroke-linecap="round" stroke-linejoin="round">
	<!-- Document outline with folded corner -->
	<path d="M6 2h8l4 4v14a2 2 0 0 1-2 2H6a2 2 0 0 1-2-2V4a2 2 0 0 1 2-2z" />
	<polyline points="14,2 14,6 18,6" />
	<!-- Checkbox 1 -->
	<rect x="7" y="10" width="2.5" height="2.5" rx="0.5" />
	<line x1="11" y1="11.25" x2="15" y2="11.25" />
	<!-- Checkbox 2 -->
	<rect x="7" y="14" width="2.5" height="2.5" rx="0.5" />
	<line x1="11" y1="15.25" x2="15" y2="15.25" />
	<!-- Checkbox 3 -->
	<rect x="7" y="18" width="2.5" height="2.5" rx="0.5" />
	<line x1="11" y1="19.25" x2="15" y2="19.25" />
</svg>
